<?xml version="1.0" encoding="utf-8"?>
<!-- Generator: Adobe Illustrator 25.0.0, SVG Export Plug-In . SVG Version: 6.00 Build 0)  -->
<svg version="1.1" id="Layer_1" xmlns="http://www.w3.org/2000/svg" xmlns:xlink="http://www.w3.org/1999/xlink" x="0px" y="0px"
	 viewBox="0 0 40 40" style="enable-background:new 0 0 40 40;" xml:space="preserve">
<style type="text/css">
	.st0{fill:#FFFFFF;}
</style>
<path class="st0" d="M15,20.8c5.1,0,9.2-4.1,9.2-9.2c0-5.1-4.1-9.2-9.2-9.2c-5.1,0-9.2,4.1-9.2,9.2C5.8,16.7,9.9,20.8,15,20.8z
	 M15,7.5c2.3,0,4.2,1.9,4.2,4.2c0,2.3-1.9,4.2-4.2,4.2c-2.3,0-4.2-1.9-4.2-4.2C10.8,9.4,12.7,7.5,15,7.5z M18.3,22.5h-6.7
	c-2.4,0-4.8,1-6.5,2.7c-1.7,1.7-2.7,4-2.7,6.5V35c0,1.4,1.1,2.5,2.5,2.5s2.5-1.1,2.5-2.5v-3.3c0-1.1,0.4-2.2,1.2-2.9
	c0.8-0.8,1.8-1.2,2.9-1.2h6.7c1.1,0,2.2,0.4,2.9,1.2c0.8,0.8,1.2,1.8,1.2,2.9V35c0,1.4,1.1,2.5,2.5,2.5s2.5-1.1,2.5-2.5v-3.3
	c0-2.4-1-4.8-2.7-6.5C23.1,23.5,20.8,22.5,18.3,22.5z M26.6,7.8c0.7,0.3,1.3,0.7,1.7,1.3c0.6,0.7,0.9,1.6,0.9,2.6s-0.3,1.8-0.9,2.6
	C28,14.7,27.5,15,27,15.3c-1.2,0.7-1.6,2.2-1,3.4c0.5,0.8,1.3,1.3,2.2,1.3c0.4,0,0.8-0.1,1.2-0.3c1.1-0.6,2-1.4,2.8-2.4
	c1.2-1.6,1.9-3.6,1.9-5.6s-0.7-4-1.9-5.6c-1-1.3-2.3-2.3-3.8-2.9c-1.3-0.5-2.7,0.1-3.3,1.4S25.3,7.3,26.6,7.8z M35.6,26.1
	c-1.2-1.6-3-2.7-4.9-3.2c-1.3-0.3-2.7,0.5-3,1.8c-0.3,1.3,0.5,2.7,1.8,3c0.9,0.2,1.7,0.8,2.2,1.5c0.6,0.7,0.9,1.6,0.9,2.5V35
	c0,1.4,1.1,2.5,2.5,2.5s2.5-1.1,2.5-2.5v-3.3C37.5,29.6,36.8,27.7,35.6,26.1z"/>
</svg>
